<svg width="750" height="750" viewBox="0 0 750 750" fill="none" xmlns="http://www.w3.org/2000/svg">
<rect width="750" height="750" rx="375" fill="#EEEEEE"/>
<path fill-rule="evenodd" clip-rule="evenodd" d="M332.348 615.839C376.284 615.649 429.879 615.503 451.202 615.453C500.607 615.169 504.489 615.041 512.922 612.002C527.985 606.914 541.829 594.706 547.4 581.636C550.987 573.172 621.677 351.794 623.616 342.436C628.029 323.106 621.709 302.798 607.207 289.114C601.654 283.883 411.213 146.618 402.208 141.483C394.247 136.853 379.453 133.42 369.989 134.082C360.524 134.744 347.469 139.691 338.826 145.915C337.215 147.138 330.958 151.732 321.971 158.33C311.123 166.296 296.295 177.183 280.857 188.587C269.895 196.626 256.951 206.128 243.916 215.697C223.375 230.776 202.609 246.02 189.023 255.962C166.815 272.213 146.012 287.934 142.894 290.745C130.434 302.136 123.947 318.584 125.14 335.648C125.752 344.396 128.614 354.426 140.472 390.054C148.496 414.134 164.942 463.85 177.023 500.615C189.247 537.37 200.738 571.87 202.687 577.065C209.316 595.623 226.089 610.877 243.781 614.539C249.771 615.705 277.473 616.218 332.348 615.839ZM368.98 336.033C358.649 334.594 353.032 330.52 329.531 307.667C313.291 291.799 308.603 276.276 315.234 259.817C317.937 253.144 321.775 248.264 334.709 235.4C354.638 215.418 357.816 213.466 371.869 212.484C387.786 211.371 393.169 214.164 412.047 232.73C431.845 252.095 435.565 257.887 436.447 270.506C437.51 285.706 434.213 292.133 415.401 311.605C406.528 320.727 396.908 329.469 393.864 331.267C387.345 334.893 376.26 337.109 368.98 336.033ZM227.771 410.319C235.863 416.814 239.138 418.314 246.992 419.35C250.33 419.693 254.098 420.006 255.399 420.059C263.182 420.091 303.657 399.249 310.613 391.558C317.568 383.866 321.158 373.384 320.406 362.63C319.864 354.886 318.446 351.095 310.247 334.809C294.388 303.784 285.079 296.365 264.01 297.983C254.116 298.674 251.871 299.552 235.185 308.212C212.954 319.997 208.299 323.493 203.298 332.344C195.217 346.599 196.819 357.15 210.85 384.7C219.52 401.53 222.432 406.081 227.771 410.319ZM492.883 418.151C482.694 416.702 447.582 398.839 440.148 391.434C432.703 383.885 428.226 371.373 429.265 361.502C430.314 351.774 446.546 318.073 454.548 308.867C463.627 298.578 479.857 293.697 493.084 297.383C500.874 299.576 531.821 315.568 537.774 320.339C548.464 328.958 554.132 346.142 550.446 359.368C548.386 367.006 530.967 400.213 526.166 405.737C518.564 414.482 504.381 419.796 492.883 418.151ZM255.186 528.292C259.85 539.349 270.129 548.285 281.421 551.098C285.67 552.097 310.561 549.492 327.198 546.312C340.127 543.678 349.937 537.661 355.808 528.893C362.706 518.323 363.279 512.087 359.67 487.266C357.834 475.435 355.558 463.49 354.64 460.672C352.141 453.786 344.616 445.09 337.863 441.239C327.517 435.478 320.717 435.089 297.044 438.618C285.356 440.444 273.564 442.853 271.043 443.894C258.305 449.252 247.735 462.96 246.724 475.279C246.035 483.973 251.88 520.165 255.186 528.292ZM399.962 533.875C408.081 542.817 415.584 545.03 456.757 550.653C471.891 552.765 488.691 543.665 495.501 529.788C499.425 522.02 505.236 485.589 504.33 474.701C503.377 461.079 492.614 447.277 479.777 442.987C472.694 440.601 434.982 435.024 429.103 435.435C417.488 436.248 405.37 444.3 399.343 454.952C395.369 462.003 388.975 498.33 389.767 509.659C390.409 518.836 394.022 527.229 399.962 533.875Z" fill="black"/>
</svg>
