<svg width="750" height="750" viewBox="0 0 750 750" fill="none" xmlns="http://www.w3.org/2000/svg">
<rect width="750" height="750" rx="375" fill="white"/>
<path d="M283.348 587.875C264.676 586.044 249.727 575.412 241.422 558.107C235.752 546.413 231.914 527.69 231.112 508.14C230.769 499.458 231.628 488.531 232.773 487.114C233.06 486.7 233.174 486.109 233.003 485.814C232.773 485.519 232.888 485.105 233.232 484.869C233.575 484.633 233.69 484.279 233.518 483.983C233.346 483.688 233.461 483.334 233.804 483.097C234.148 482.861 234.263 482.448 234.091 482.152C233.862 481.857 234.034 481.621 234.377 481.621C234.721 481.621 234.835 481.384 234.664 481.03C234.492 480.735 234.606 480.439 234.95 480.439C235.294 480.439 235.408 480.203 235.236 479.849C235.064 479.554 235.179 479.258 235.523 479.258C235.866 479.258 235.981 479.022 235.809 478.668C235.637 478.372 235.752 478.077 236.095 478.077C236.439 478.077 236.611 477.841 236.439 477.545C236.267 477.25 236.496 476.837 236.955 476.659C237.413 476.482 237.756 476.128 237.699 475.892C237.241 474.533 249.383 463.902 251.388 463.902C251.789 463.902 252.133 463.666 252.133 463.37C252.133 463.075 252.705 462.603 253.45 462.366C254.137 462.13 254.825 461.776 254.996 461.539C255.856 460.24 269.888 453.802 278.479 450.79C294.975 445.002 307.06 442.462 318 442.462C329.741 442.521 337.932 445.592 347.611 453.566C354.37 459.177 357.749 463.252 360.67 469.454C365.424 479.554 367.142 489.476 367.658 509.203C368.059 524.146 367.371 533.714 365.195 544.818C363.248 554.504 363.591 553.323 360.957 559.406C360.04 561.414 359.467 563.186 359.696 563.364C359.868 563.541 359.696 563.718 359.296 563.718C358.895 563.718 358.723 563.954 358.952 564.249C359.124 564.604 358.723 565.135 358.093 565.49C357.463 565.844 357.005 566.317 357.062 566.553C357.234 567.084 353.224 571.16 352.079 571.632C351.621 571.809 351.22 572.223 351.22 572.577C351.22 572.873 350.876 573.168 350.418 573.168C349.96 573.168 349.215 573.522 348.814 573.936C348.356 574.29 346.466 575.412 344.633 576.357C342.743 577.302 340.738 578.306 340.223 578.543C339.65 578.838 338.791 579.074 338.333 579.074C337.874 579.074 337.473 579.31 337.473 579.606C337.473 580.315 331.173 582.264 326.018 583.209C323.956 583.563 322.238 584.154 322.124 584.449C322.009 584.744 321.264 584.803 320.52 584.626C319.718 584.39 319.145 584.508 319.145 584.921C319.145 585.276 318.802 585.394 318.458 585.276C318.057 585.099 315.766 585.394 313.418 585.866C309.007 586.752 308.492 586.87 297.61 587.934C290.794 588.583 290.106 588.583 283.348 587.875ZM320.806 552.437C339.364 547.535 352.938 531.174 355.286 510.975C356.604 499.458 353.912 488.885 347.096 478.49C336.557 462.484 316.224 454.629 297.839 459.413C276.876 464.906 262.442 483.688 262.442 505.482C262.442 514.696 265.478 525.563 270.117 532.71C275.157 540.565 284.379 548.007 293.142 551.256C301.619 554.445 311.642 554.858 320.806 552.437Z" fill="#598200"/>
<path d="M234.835 438.209C234.721 438.091 233.002 437.914 230.941 437.737C223.609 437.146 218.111 434.075 211.295 426.751C205.796 420.786 201.844 415.234 196.69 406.197C189.072 392.908 183.516 379.324 181.454 368.693C180.423 363.613 180.309 354.163 181.168 349.615C181.454 348.021 181.741 346.19 181.741 345.658C181.741 345.068 182.027 344.595 182.371 344.595C182.657 344.595 182.829 344.241 182.657 343.768C182.485 343.355 182.714 342.292 183.115 341.465C183.516 340.638 183.745 339.811 183.516 339.634C183.344 339.457 183.516 339.279 183.917 339.279C184.375 339.279 184.547 338.866 184.318 338.393C184.146 337.921 184.261 337.508 184.604 337.508C184.948 337.508 185.005 337.271 184.834 336.917C184.662 336.622 184.776 336.326 185.12 336.326C185.464 336.326 185.578 336.09 185.406 335.736C185.235 335.44 185.349 335.145 185.693 335.145C186.036 335.145 186.151 334.909 185.979 334.554C185.807 334.259 185.922 333.964 186.265 333.964C186.609 333.964 186.781 333.728 186.609 333.432C186.437 333.137 186.666 332.723 187.182 332.546C187.64 332.369 187.869 331.956 187.697 331.601C187.526 331.306 187.64 331.011 187.984 331.011C188.327 331.011 188.442 330.715 188.27 330.42C188.098 330.066 188.327 329.652 188.786 329.475C189.301 329.298 189.587 328.884 189.416 328.589C189.244 328.353 189.645 327.821 190.275 327.467C190.905 327.113 191.363 326.64 191.248 326.345C191.191 326.108 191.993 325.163 193.024 324.218C194.055 323.333 194.742 322.447 194.57 322.269C194.17 321.856 197.721 318.017 198.522 318.017C198.809 318.017 200.183 316.836 201.558 315.359C202.875 313.882 204.365 312.701 204.88 312.701C205.338 312.701 205.739 312.465 205.739 312.111C205.739 311.815 206.14 311.52 206.598 311.52C207.057 311.52 207.457 311.284 207.457 310.929C207.457 310.634 207.801 310.339 208.259 310.339C208.718 310.339 209.176 310.102 209.29 309.866C209.519 309.217 216.106 305.259 222.349 302.07C231.914 297.109 248.009 290.966 249.269 291.734C249.612 291.911 249.842 291.852 249.842 291.557C249.842 290.789 257.516 289.608 262.557 289.549C270.289 289.49 277.277 292.738 286.154 300.593C304.082 316.304 323.04 344.831 327.507 362.668C330.028 372.827 328.939 384.462 324.415 395.035C323.785 396.452 323.384 397.811 323.555 397.988C323.727 398.106 323.326 398.874 322.639 399.582C322.009 400.291 321.608 401.118 321.78 401.413C321.952 401.65 321.78 401.886 321.436 401.886C321.093 401.886 320.921 402.122 321.15 402.417C321.322 402.772 320.921 403.303 320.233 403.658C319.603 404.071 319.202 404.485 319.374 404.662C319.546 404.839 319.031 405.548 318.229 406.138C317.427 406.788 316.969 407.497 317.141 407.674C317.599 408.147 313.933 411.927 313.017 411.927C312.616 411.927 311.986 412.458 311.585 413.108C311.184 413.758 310.554 414.289 310.153 414.289C309.752 414.289 309.408 414.584 309.408 414.88C309.408 415.234 309.007 415.47 308.549 415.47C308.091 415.47 307.69 415.707 307.69 415.943C307.69 416.238 306.659 416.888 305.399 417.478C304.139 418.069 303.108 418.719 303.108 419.014C303.108 419.25 302.249 419.782 301.275 420.254C300.244 420.668 298.698 421.495 297.839 422.085C296.979 422.676 294.574 423.739 292.512 424.389C290.45 425.098 288.789 425.806 288.789 426.102C288.789 426.338 287.873 426.751 286.727 426.988C285.582 427.165 284.264 427.755 283.806 428.228C283.348 428.7 282.431 429.055 281.744 429.055C280.083 429.055 271.434 432.008 270.976 432.776C270.747 433.071 269.258 433.484 267.654 433.662C266.051 433.78 264.733 434.134 264.733 434.37C264.733 434.666 264.218 434.725 263.588 434.548C262.958 434.37 262.442 434.489 262.442 434.843C262.442 435.197 261.927 435.315 261.297 435.138C260.667 434.961 260.151 435.138 260.151 435.493C260.151 435.847 259.521 435.965 258.433 435.788C257.459 435.552 256.715 435.67 256.715 435.965C256.715 436.319 256.085 436.438 255.283 436.26C254.481 436.142 253.851 436.26 253.851 436.556C253.851 437.087 252.934 437.264 248.467 437.324C247.551 437.324 246.52 437.56 246.176 437.855C245.66 438.269 235.236 438.564 234.835 438.209ZM277.907 416.593C280.255 416.002 284.665 414.23 287.644 412.753C292.283 410.332 293.829 409.151 298.87 403.953C304.139 398.519 304.998 397.338 307.575 391.786C312.444 381.332 313.819 372.236 312.043 361.782C310.897 355.108 309.351 350.915 305.8 345.068C298.984 333.787 289.82 326.935 276.99 323.628C259.235 318.962 240.219 325.872 229.108 340.992C215.304 359.774 216.622 385.821 232.258 402.831C242.51 413.994 254.366 418.955 268.743 418.01C271.434 417.833 275.558 417.183 277.907 416.593Z" fill="#598200"/>
<path fill-rule="evenodd" clip-rule="evenodd" d="M218.626 595.494C225.614 612.326 236.783 621.599 253.278 624.257C261.469 625.556 268.284 625.32 311.699 622.19C337.817 620.3 365.596 618.646 371.724 618.646H378.273C384.402 618.646 412.181 620.3 438.299 622.19C481.714 625.32 488.53 625.556 496.721 624.257C513.216 621.599 524.385 612.326 531.373 595.494C532.747 592.127 535.611 583.563 537.673 576.416C551.076 530.761 586.415 441.576 611.159 390.959C613.851 385.467 616.944 379.088 618.032 376.784C627.482 357.057 627.311 339.102 617.574 323.628C611.903 314.709 606.118 309.394 586.931 295.573C567.972 281.871 540.308 260.313 519.631 243.066C485.323 214.539 458.976 190.146 436.581 166.226C410.405 138.23 407.599 135.69 397.461 130.788C392.191 128.248 383.256 125.768 377.701 125.295L375.848 125.141V125L374.999 125.071L374.149 125V125.141L372.297 125.295C366.741 125.768 357.806 128.248 352.537 130.788C342.399 135.69 339.593 138.23 313.418 166.226C291.023 190.146 264.676 214.539 230.368 243.066C209.691 260.313 182.027 281.871 163.069 295.573C143.881 309.394 138.097 314.709 132.426 323.628C122.689 339.102 122.518 357.057 131.968 376.784C133.056 379.088 136.149 385.467 138.841 390.959C163.584 441.576 198.923 530.761 212.326 576.416C214.388 583.563 217.252 592.127 218.626 595.494ZM374.999 198.298C374.959 198.324 374.918 198.342 374.874 198.356C374.302 198.533 372.297 198.828 370.407 199.006C368.517 199.242 365.939 199.655 364.679 200.01C361.873 200.718 352.365 205.207 352.365 205.798C352.365 206.034 351.735 206.447 350.933 206.625C350.131 206.861 349.501 207.274 349.501 207.57C349.501 207.924 349.158 208.16 348.699 208.16C348.299 208.16 347.268 208.81 346.408 209.637C345.549 210.464 344.633 211.113 344.347 211.113C344.06 211.113 343.373 211.763 342.857 212.59C342.342 213.417 341.597 214.067 341.196 214.067C340.738 214.067 339.879 214.834 339.192 215.838C338.504 216.783 337.645 217.61 337.302 217.61C336.385 217.61 327.737 226.588 327.737 227.474C327.737 227.828 326.591 229.128 325.159 230.368C323.727 231.549 322.582 232.908 322.582 233.321C322.582 233.734 321.952 234.561 321.15 235.093C320.348 235.624 319.718 236.392 319.718 236.865C319.718 237.278 319.202 237.928 318.572 238.282C317.942 238.637 317.427 239.286 317.427 239.759C317.427 240.231 317.198 240.645 316.854 240.645C316.568 240.645 316.281 241.058 316.281 241.531C316.281 242.062 315.88 242.594 315.422 242.771C314.964 243.007 314.563 243.48 314.563 243.834C314.563 244.248 314.105 245.074 313.589 245.724C313.017 246.315 311.298 249.622 309.695 253.048C308.148 256.474 306.659 259.368 306.43 259.545C305.628 260.195 305.113 265.924 305.514 269.29C308.32 291.675 338.046 334.673 357.749 344.831C362.331 347.253 369.605 349.32 373.385 349.32H376.612C380.393 349.32 387.667 347.253 392.249 344.831C411.952 334.673 441.678 291.675 444.485 269.29C444.886 265.924 444.37 260.195 443.568 259.545C443.339 259.368 441.85 256.474 440.304 253.048C438.7 249.622 436.982 246.315 436.409 245.724C435.893 245.074 435.435 244.248 435.435 243.834C435.435 243.48 435.034 243.007 434.576 242.771C434.118 242.594 433.717 242.062 433.717 241.531C433.717 241.058 433.43 240.645 433.144 240.645C432.8 240.645 432.571 240.231 432.571 239.759C432.571 239.286 432.056 238.637 431.426 238.282C430.796 237.928 430.28 237.278 430.28 236.865C430.28 236.392 429.65 235.624 428.848 235.093C428.046 234.561 427.416 233.734 427.416 233.321C427.416 232.908 426.271 231.549 424.839 230.368C423.407 229.128 422.261 227.828 422.261 227.474C422.261 226.588 413.613 217.61 412.696 217.61C412.353 217.61 411.494 216.783 410.806 215.838C410.119 214.834 409.26 214.067 408.802 214.067C408.401 214.067 407.656 213.417 407.141 212.59C406.625 211.763 405.938 211.113 405.651 211.113C405.365 211.113 404.449 210.464 403.589 209.637C402.73 208.81 401.699 208.16 401.298 208.16C400.84 208.16 400.497 207.924 400.497 207.57C400.497 207.274 399.866 206.861 399.065 206.625C398.263 206.447 397.633 206.034 397.633 205.798C397.633 205.207 388.125 200.718 385.318 200.01C384.058 199.655 381.481 199.242 379.591 199.006C377.701 198.828 375.696 198.533 375.123 198.356C375.08 198.342 375.038 198.324 374.999 198.298ZM372.068 375.308C370.006 375.308 365.939 375.012 363.018 374.658C357.921 374.008 357.52 374.008 355.057 375.249C351.105 377.198 350.303 379.029 349.272 388.302C348.413 396.157 346.58 405.666 344.232 414.289C342.857 419.428 342.8 422.676 344.003 424.625C344.518 425.393 348.986 428.169 354.484 431.122C359.754 433.898 366.741 437.855 369.949 439.863L374.999 442.998L380.049 439.863C383.256 437.855 390.244 433.898 395.513 431.122C401.012 428.169 405.48 425.393 405.995 424.625C407.198 422.676 407.141 419.428 405.766 414.289C403.418 405.666 401.585 396.157 400.726 388.302C399.695 379.029 398.893 377.198 394.941 375.249C392.478 374.008 392.077 374.008 386.979 374.658C384.058 375.012 379.992 375.308 377.93 375.308H372.068ZM317.37 582.854C313.704 583.681 307.633 584.744 303.91 585.217C290.45 586.929 284.493 586.752 276.074 584.508C258.547 579.724 245.546 566.435 239.36 546.885C234.549 531.765 231.685 508.022 233.232 495.323C233.633 492.016 234.148 489.122 234.434 488.944C234.721 488.767 234.95 488.177 234.95 487.586C234.95 485.342 239.704 476.659 242.625 473.647C245.832 470.281 251.904 465.674 253.106 465.674C253.507 465.674 253.851 465.437 253.851 465.142C253.851 464.847 254.424 464.374 255.168 464.138C255.856 463.902 256.543 463.547 256.715 463.311C257.173 462.661 264.561 458.881 270.289 456.46C287.243 449.195 306.602 444.234 318 444.293C327.966 444.352 336.786 447.837 345.893 455.338C352.652 460.949 356.031 465.024 358.952 471.226C364.164 482.329 365.768 492.547 365.825 514.105C365.825 530.347 365.138 536.903 362.388 548.184C360.956 554.031 357.234 563.068 355.974 563.895C355.573 564.131 355.229 564.604 355.229 564.84C355.229 565.549 351.449 569.388 350.36 569.86C349.902 570.037 349.501 570.451 349.501 570.805C349.501 571.101 349.158 571.396 348.699 571.396C348.241 571.396 347.497 571.75 347.096 572.164C346.638 572.518 344.747 573.64 342.915 574.585L342.503 574.791C340.742 575.672 338.983 576.551 338.504 576.771C337.932 577.066 337.073 577.302 336.614 577.302C336.156 577.302 335.755 577.538 335.755 577.834C335.755 578.542 331.059 580.196 327.164 580.846C325.446 581.141 321.035 582.027 317.37 582.854ZM255.054 434.075C251.159 434.902 247.264 435.552 246.405 435.552C245.603 435.552 244.687 435.729 244.4 436.024C244.057 436.26 240.506 436.32 236.382 436.083C228.249 435.67 224.755 434.666 219.944 431.417C216.622 429.173 209.577 421.554 205.567 415.943C198.351 405.843 189.587 388.656 185.979 377.375C181.741 364.322 181.283 356.939 184.032 346.367C184.776 343.473 190.275 331.424 190.962 331.129C191.191 331.011 191.42 330.538 191.42 330.125C191.42 329.711 191.821 329.239 192.279 329.003C192.738 328.825 193.139 328.412 193.139 328.058C193.139 327.703 193.94 326.699 194.857 325.872C195.831 325.104 196.575 324.1 196.575 323.687C196.575 322.86 199.496 319.789 200.298 319.789C200.584 319.789 201.902 318.608 203.276 317.131C204.594 315.654 206.083 314.473 206.598 314.473C207.057 314.473 207.458 314.237 207.458 313.883C207.458 313.587 207.858 313.292 208.317 313.292C208.775 313.292 209.176 313.056 209.176 312.701C209.176 312.406 209.519 312.111 209.978 312.111C210.436 312.111 210.894 311.874 211.009 311.638C211.238 310.988 217.939 306.972 224.354 303.665C231.914 299.767 245.489 294.392 248.753 293.978C250.3 293.801 251.56 293.447 251.56 293.211C251.56 292.62 258.891 291.439 262.557 291.439C268.972 291.439 276.074 294.982 284.436 302.365C294.574 311.225 305.17 324.219 313.99 338.63C324.472 355.699 328.825 370.169 326.534 380.623C324.644 389.365 320.233 399.996 317.026 403.599C315.995 404.78 315.136 405.961 315.136 406.257C315.136 407.143 312.158 410.155 311.298 410.155C310.898 410.155 310.267 410.686 309.867 411.336C309.466 411.986 308.836 412.517 308.435 412.517C308.034 412.517 307.69 412.813 307.69 413.108C307.69 413.462 307.289 413.698 306.831 413.698C306.373 413.698 305.972 413.935 305.972 414.171C305.972 414.466 304.941 415.116 303.681 415.707C302.421 416.297 301.39 416.947 301.39 417.242C301.39 417.479 300.531 418.01 299.557 418.483C298.526 418.896 296.98 419.723 296.12 420.314C295.261 420.904 292.856 421.967 290.794 422.617C288.732 423.326 287.071 424.034 287.071 424.33C287.071 424.566 286.154 424.979 285.009 425.216C283.863 425.393 282.546 425.984 282.088 426.456C281.63 426.929 280.713 427.283 280.026 427.283C278.422 427.283 269.716 430.236 269.258 430.945C269.086 431.24 267.425 431.713 265.535 432.008C263.702 432.303 258.948 433.248 255.054 434.075ZM432.628 582.854C436.294 583.681 442.365 584.744 446.088 585.217C459.548 586.929 465.505 586.752 473.925 584.508C491.451 579.724 504.453 566.435 510.639 546.885C515.45 531.765 518.314 508.022 516.767 495.323C516.366 492.016 515.851 489.122 515.565 488.944C515.278 488.767 515.049 488.177 515.049 487.586C515.049 485.342 510.295 476.659 507.374 473.647C504.167 470.281 498.095 465.674 496.893 465.674C496.492 465.674 496.148 465.437 496.148 465.142C496.148 464.847 495.575 464.374 494.831 464.138C494.143 463.902 493.456 463.547 493.284 463.311C492.826 462.661 485.437 458.881 479.71 456.46C462.756 449.195 443.396 444.234 431.998 444.293C422.032 444.352 413.212 447.837 404.105 455.338C397.346 460.949 393.967 465.024 391.046 471.226C385.834 482.329 384.23 492.547 384.173 514.105C384.173 530.347 384.86 536.903 387.609 548.184C389.041 554.031 392.764 563.068 394.024 563.895C394.425 564.131 394.769 564.604 394.769 564.84C394.769 565.549 398.549 569.388 399.637 569.86C400.096 570.037 400.497 570.451 400.497 570.805C400.497 571.101 400.84 571.396 401.298 571.396C401.757 571.396 402.501 571.75 402.902 572.164C403.36 572.518 405.25 573.64 407.083 574.585L407.495 574.791C409.256 575.672 411.015 576.551 411.494 576.771C412.066 577.066 412.925 577.302 413.384 577.302C413.842 577.302 414.243 577.538 414.243 577.834C414.243 578.542 418.939 580.196 422.834 580.846C424.553 581.141 428.963 582.027 432.628 582.854ZM494.945 434.075C498.84 434.902 502.735 435.552 503.594 435.552C504.396 435.552 505.312 435.729 505.598 436.024C505.942 436.26 509.493 436.32 513.617 436.083C521.75 435.67 525.244 434.666 530.055 431.417C533.377 429.173 540.422 421.554 544.432 415.943C551.649 405.843 560.412 388.656 564.02 377.375C568.259 364.322 568.717 356.939 565.968 346.367C565.223 343.473 559.725 331.424 559.037 331.129C558.808 331.011 558.579 330.538 558.579 330.125C558.579 329.711 558.178 329.239 557.72 329.003C557.262 328.825 556.861 328.412 556.861 328.058C556.861 327.703 556.059 326.699 555.142 325.872C554.169 325.104 553.424 324.1 553.424 323.687C553.424 322.86 550.503 319.789 549.701 319.789C549.415 319.789 548.097 318.608 546.723 317.131C545.406 315.654 543.916 314.473 543.401 314.473C542.943 314.473 542.542 314.237 542.542 313.883C542.542 313.587 542.141 313.292 541.683 313.292C541.224 313.292 540.823 313.056 540.823 312.701C540.823 312.406 540.48 312.111 540.022 312.111C539.563 312.111 539.105 311.874 538.991 311.638C538.761 310.988 532.06 306.972 525.645 303.665C518.085 299.767 504.51 294.392 501.245 293.978C499.699 293.801 498.439 293.447 498.439 293.211C498.439 292.62 491.108 291.439 487.442 291.439C481.027 291.439 473.925 294.982 465.562 302.365C455.424 311.225 444.828 324.219 436.008 338.63C425.526 355.699 421.173 370.169 423.464 380.623C425.354 389.365 429.765 399.996 432.972 403.599C434.003 404.78 434.862 405.961 434.862 406.257C434.862 407.143 437.841 410.155 438.7 410.155C439.101 410.155 439.731 410.686 440.132 411.336C440.533 411.986 441.163 412.517 441.564 412.517C441.965 412.517 442.308 412.813 442.308 413.108C442.308 413.462 442.709 413.698 443.167 413.698C443.626 413.698 444.026 413.935 444.026 414.171C444.026 414.466 445.057 415.116 446.318 415.707C447.578 416.297 448.609 416.947 448.609 417.242C448.609 417.479 449.468 418.01 450.441 418.483C451.472 418.896 453.019 419.723 453.878 420.314C454.737 420.904 457.143 421.967 459.205 422.617C461.267 423.326 462.928 424.034 462.928 424.33C462.928 424.566 463.844 424.979 464.99 425.216C466.135 425.393 467.452 425.984 467.911 426.456C468.369 426.929 469.285 427.283 469.973 427.283C471.576 427.283 480.282 430.236 480.741 430.945C480.912 431.24 482.573 431.713 484.464 432.008C486.296 432.303 491.05 433.248 494.945 434.075Z" fill="#7BB400"/>
<path d="M466.651 587.875C485.323 586.044 500.272 575.412 508.577 558.107C514.247 546.413 518.085 527.69 518.887 508.14C519.23 499.458 518.371 488.531 517.226 487.114C516.939 486.7 516.825 486.109 516.996 485.814C517.226 485.519 517.111 485.105 516.767 484.869C516.424 484.633 516.309 484.279 516.481 483.983C516.653 483.688 516.538 483.334 516.195 483.097C515.851 482.861 515.736 482.448 515.908 482.152C516.137 481.857 515.965 481.621 515.622 481.621C515.278 481.621 515.164 481.384 515.335 481.03C515.507 480.735 515.393 480.439 515.049 480.439C514.705 480.439 514.591 480.203 514.763 479.849C514.935 479.554 514.82 479.258 514.476 479.258C514.133 479.258 514.018 479.022 514.19 478.668C514.362 478.372 514.247 478.077 513.904 478.077C513.56 478.077 513.388 477.841 513.56 477.545C513.732 477.25 513.503 476.837 513.044 476.659C512.586 476.482 512.243 476.128 512.3 475.892C512.758 474.533 500.615 463.902 498.611 463.902C498.21 463.902 497.866 463.666 497.866 463.37C497.866 463.075 497.293 462.603 496.549 462.366C495.862 462.13 495.174 461.776 495.002 461.539C494.143 460.24 480.111 453.802 471.519 450.79C455.024 445.002 442.938 442.462 431.998 442.462C420.257 442.521 412.066 445.592 402.387 453.566C395.628 459.177 392.249 463.252 389.328 469.454C384.574 479.554 382.855 489.476 382.34 509.203C381.939 524.146 382.626 533.714 384.803 544.818C386.75 554.504 386.407 553.323 389.041 559.406C389.958 561.414 390.53 563.186 390.301 563.364C390.129 563.541 390.301 563.718 390.702 563.718C391.103 563.718 391.275 563.954 391.046 564.249C390.874 564.604 391.275 565.135 391.905 565.49C392.535 565.844 392.993 566.317 392.936 566.553C392.764 567.084 396.774 571.16 397.919 571.632C398.377 571.809 398.778 572.223 398.778 572.577C398.778 572.873 399.122 573.168 399.58 573.168C400.038 573.168 400.783 573.522 401.184 573.936C401.642 574.29 403.532 575.412 405.365 576.357C407.255 577.302 409.26 578.306 409.775 578.543C410.348 578.838 411.207 579.074 411.665 579.074C412.124 579.074 412.525 579.31 412.525 579.606C412.525 580.315 418.825 582.264 423.98 583.209C426.042 583.563 427.76 584.154 427.875 584.449C427.989 584.744 428.734 584.803 429.478 584.626C430.28 584.39 430.853 584.508 430.853 584.921C430.853 585.276 431.197 585.394 431.54 585.276C431.941 585.099 434.232 585.394 436.581 585.866C440.991 586.752 441.506 586.87 452.389 587.934C459.205 588.583 459.892 588.583 466.651 587.875ZM429.192 552.437C410.634 547.535 397.06 531.174 394.712 510.975C393.394 499.458 396.086 488.885 402.902 478.49C413.441 462.484 433.774 454.629 452.16 459.413C473.123 464.906 487.556 483.688 487.556 505.482C487.556 514.696 484.521 525.563 479.881 532.71C474.841 540.565 465.62 548.007 456.856 551.256C448.379 554.445 438.356 554.858 429.192 552.437Z" fill="#598200"/>
<path d="M515.164 438.209C515.278 438.091 516.997 437.914 519.059 437.737C526.39 437.146 531.889 434.075 538.704 426.751C544.203 420.786 548.155 415.234 553.31 406.197C560.928 392.908 566.483 379.324 568.545 368.693C569.576 363.613 569.691 354.163 568.832 349.615C568.545 348.021 568.259 346.19 568.259 345.658C568.259 345.068 567.973 344.595 567.629 344.595C567.343 344.595 567.171 344.241 567.343 343.768C567.514 343.355 567.285 342.292 566.884 341.465C566.483 340.638 566.254 339.811 566.483 339.634C566.655 339.457 566.483 339.279 566.082 339.279C565.624 339.279 565.452 338.866 565.682 338.393C565.853 337.921 565.739 337.508 565.395 337.508C565.051 337.508 564.994 337.271 565.166 336.917C565.338 336.622 565.223 336.326 564.88 336.326C564.536 336.326 564.421 336.09 564.593 335.736C564.765 335.44 564.651 335.145 564.307 335.145C563.963 335.145 563.849 334.909 564.02 334.554C564.192 334.259 564.078 333.964 563.734 333.964C563.39 333.964 563.219 333.728 563.39 333.432C563.562 333.137 563.333 332.723 562.818 332.546C562.359 332.369 562.13 331.956 562.302 331.601C562.474 331.306 562.359 331.011 562.016 331.011C561.672 331.011 561.558 330.715 561.729 330.42C561.901 330.066 561.672 329.652 561.214 329.475C560.698 329.298 560.412 328.884 560.584 328.589C560.756 328.353 560.355 327.821 559.725 327.467C559.095 327.113 558.637 326.64 558.751 326.345C558.808 326.108 558.006 325.163 556.976 324.218C555.945 323.333 555.257 322.447 555.429 322.269C555.83 321.856 552.279 318.017 551.477 318.017C551.191 318.017 549.816 316.836 548.441 315.359C547.124 313.882 545.635 312.701 545.119 312.701C544.661 312.701 544.26 312.465 544.26 312.111C544.26 311.815 543.859 311.52 543.401 311.52C542.943 311.52 542.542 311.284 542.542 310.929C542.542 310.634 542.198 310.339 541.74 310.339C541.282 310.339 540.824 310.102 540.709 309.866C540.48 309.217 533.893 305.259 527.65 302.07C518.085 297.109 501.99 290.966 500.73 291.734C500.387 291.911 500.157 291.852 500.157 291.557C500.157 290.789 492.482 289.608 487.442 289.549C479.71 289.49 472.722 292.738 463.844 300.593C445.917 316.304 426.958 344.831 422.491 362.668C419.971 372.827 421.059 384.462 425.584 395.035C426.214 396.452 426.615 397.811 426.443 397.988C426.271 398.106 426.672 398.874 427.359 399.582C427.989 400.291 428.39 401.118 428.218 401.413C428.047 401.65 428.218 401.886 428.562 401.886C428.906 401.886 429.078 402.122 428.848 402.417C428.677 402.772 429.078 403.303 429.765 403.658C430.395 404.071 430.796 404.485 430.624 404.662C430.452 404.839 430.968 405.548 431.77 406.138C432.571 406.788 433.03 407.497 432.858 407.674C432.4 408.147 436.065 411.927 436.982 411.927C437.383 411.927 438.013 412.458 438.414 413.108C438.815 413.758 439.445 414.289 439.846 414.289C440.246 414.289 440.59 414.584 440.59 414.88C440.59 415.234 440.991 415.47 441.449 415.47C441.907 415.47 442.308 415.707 442.308 415.943C442.308 416.238 443.339 416.888 444.599 417.478C445.86 418.069 446.891 418.719 446.891 419.014C446.891 419.25 447.75 419.782 448.723 420.254C449.754 420.668 451.301 421.495 452.16 422.085C453.019 422.676 455.425 423.739 457.487 424.389C459.549 425.098 461.21 425.806 461.21 426.102C461.21 426.338 462.126 426.751 463.272 426.988C464.417 427.165 465.734 427.755 466.193 428.228C466.651 428.7 467.567 429.055 468.255 429.055C469.916 429.055 478.564 432.008 479.023 432.776C479.252 433.071 480.741 433.484 482.345 433.662C483.948 433.78 485.266 434.134 485.266 434.37C485.266 434.666 485.781 434.725 486.411 434.548C487.041 434.37 487.557 434.489 487.557 434.843C487.557 435.197 488.072 435.315 488.702 435.138C489.332 434.961 489.848 435.138 489.848 435.493C489.848 435.847 490.478 435.965 491.566 435.788C492.54 435.552 493.284 435.67 493.284 435.965C493.284 436.319 493.914 436.438 494.716 436.26C495.518 436.142 496.148 436.26 496.148 436.556C496.148 437.087 497.065 437.264 501.532 437.324C502.448 437.324 503.479 437.56 503.823 437.855C504.339 438.269 514.763 438.564 515.164 438.209ZM472.092 416.593C469.744 416.002 465.333 414.23 462.355 412.753C457.716 410.332 456.169 409.151 451.129 403.953C445.86 398.519 445 397.338 442.423 391.786C437.554 381.332 436.18 372.236 437.955 361.782C439.101 355.108 440.647 350.915 444.199 345.068C451.014 333.787 460.179 326.935 473.008 323.628C490.764 318.962 509.78 325.872 520.891 340.992C534.695 359.774 533.378 385.821 517.741 402.831C507.489 413.994 495.633 418.955 481.256 418.01C478.564 417.833 474.44 417.183 472.092 416.593Z" fill="#598200"/>
<path fill-rule="evenodd" clip-rule="evenodd" d="M366.111 350.324C367.2 350.501 368.231 350.738 368.345 350.856C368.46 350.974 370.235 351.092 372.24 351.092H377.758C379.763 351.092 381.538 350.974 381.653 350.856C381.767 350.738 382.798 350.501 383.886 350.324C387.151 349.852 392.535 347.666 396.487 345.245C408.572 337.803 425.526 317.426 436.122 297.64C444.599 281.752 447.749 270.471 446.26 261.671C445.917 259.545 445.344 257.773 445.057 257.773C444.714 257.773 444.599 257.359 444.828 256.887C445 256.414 444.886 256.001 444.542 256.001C444.198 256.001 444.141 255.765 444.313 255.41C444.485 255.115 444.427 254.82 444.141 254.82C443.568 254.82 441.335 250.095 441.621 249.386C441.678 249.091 441.449 248.914 441.105 248.914C440.819 248.914 440.704 248.677 440.876 248.323C441.048 248.028 440.934 247.732 440.59 247.732C440.246 247.732 440.132 247.496 440.304 247.142C440.475 246.846 440.361 246.551 440.017 246.551C439.674 246.551 439.559 246.256 439.731 245.96C439.903 245.606 439.674 245.193 439.215 245.015C438.7 244.838 438.413 244.425 438.585 244.188C438.757 243.952 438.471 243.539 437.955 243.362C437.497 243.184 437.211 242.771 437.44 242.476C437.612 242.121 437.211 241.59 436.581 241.235C435.951 240.881 435.55 240.349 435.721 239.995C435.951 239.7 435.664 239.286 435.206 239.109C434.69 238.932 434.404 238.518 434.576 238.223C434.748 237.987 434.232 237.278 433.43 236.747C432.686 236.215 432.113 235.565 432.285 235.329C432.457 235.034 431.827 234.266 430.853 233.557C429.879 232.848 429.249 232.081 429.421 231.785C429.593 231.549 428.39 230.191 426.844 228.832C425.24 227.415 424.094 226.174 424.266 225.997C424.724 225.525 415.331 215.838 414.415 215.838C414.071 215.838 413.212 215.071 412.525 214.067C411.837 213.122 410.978 212.295 410.52 212.295C410.119 212.295 409.374 211.645 408.859 210.818C408.343 209.991 407.656 209.341 407.37 209.341C407.083 209.341 406.167 208.692 405.308 207.865C404.449 207.038 403.418 206.388 403.017 206.388C402.558 206.388 402.215 206.152 402.215 205.798C402.215 205.502 401.585 205.089 400.783 204.853C399.981 204.676 399.351 204.262 399.351 204.026C399.351 202.608 382.97 196.348 381.595 197.234C381.252 197.411 381.023 197.352 381.023 197.056C381.023 196.761 379.476 196.525 377.586 196.525L375.848 196.495V196.466L374.999 196.48L374.149 196.466V196.495L372.412 196.525C370.522 196.525 368.975 196.761 368.975 197.056C368.975 197.352 368.746 197.411 368.402 197.234C367.028 196.348 350.647 202.608 350.647 204.026C350.647 204.262 350.017 204.676 349.215 204.853C348.413 205.089 347.783 205.502 347.783 205.798C347.783 206.152 347.439 206.388 346.981 206.388C346.58 206.388 345.549 207.038 344.69 207.865C343.831 208.692 342.915 209.341 342.628 209.341C342.342 209.341 341.655 209.991 341.139 210.818C340.624 211.645 339.879 212.295 339.478 212.295C339.02 212.295 338.161 213.122 337.473 214.067C336.786 215.071 335.927 215.838 335.583 215.838C334.667 215.838 325.274 225.525 325.732 225.997C325.904 226.174 324.758 227.415 323.155 228.832C321.608 230.191 320.405 231.549 320.577 231.785C320.749 232.081 320.119 232.848 319.145 233.557C318.172 234.266 317.541 235.034 317.713 235.329C317.885 235.565 317.312 236.215 316.568 236.747C315.766 237.278 315.25 237.987 315.422 238.223C315.594 238.518 315.308 238.932 314.792 239.109C314.334 239.286 314.048 239.7 314.277 239.995C314.449 240.349 314.048 240.881 313.418 241.235C312.788 241.59 312.387 242.121 312.558 242.476C312.788 242.771 312.501 243.184 312.043 243.362C311.528 243.539 311.241 243.952 311.413 244.188C311.585 244.425 311.298 244.838 310.783 245.015C310.325 245.193 310.096 245.606 310.267 245.96C310.439 246.256 310.325 246.551 309.981 246.551C309.637 246.551 309.523 246.846 309.695 247.142C309.867 247.496 309.752 247.732 309.408 247.732C309.065 247.732 308.95 248.028 309.122 248.323C309.294 248.677 309.179 248.914 308.893 248.914C308.549 248.914 308.32 249.091 308.377 249.386C308.664 250.095 306.43 254.82 305.857 254.82C305.571 254.82 305.514 255.115 305.685 255.41C305.857 255.765 305.8 256.001 305.456 256.001C305.113 256.001 304.998 256.414 305.17 256.887C305.399 257.359 305.284 257.773 304.941 257.773C304.654 257.773 304.082 259.545 303.738 261.671C302.249 270.471 305.399 281.752 313.876 297.64C324.472 317.426 341.425 337.803 353.511 345.245C357.463 347.666 362.847 349.852 366.111 350.324ZM373.958 238.282C370.292 238.282 362.961 240.645 357.062 243.657C346.867 248.914 338.676 258.127 334.667 268.877C332.261 275.374 331.517 280.394 331.918 288.426C332.376 299.353 335.526 308.094 341.998 316.304C345.664 321.029 348.699 323.805 353.568 327.053C359.525 330.952 368.059 333.964 373.443 333.964H376.555C381.939 333.964 390.473 330.952 396.43 327.053C401.298 323.805 404.334 321.029 408 316.304C414.472 308.094 417.622 299.353 418.08 288.426C418.481 280.394 417.737 275.374 415.331 268.877C411.322 258.127 403.131 248.914 392.936 243.657C387.037 240.645 379.705 238.282 376.04 238.282H373.958Z" fill="#598200"/>
</svg>
